<?xml version="1.0"?>
<svg width="24" height="24" xmlns="http://www.w3.org/2000/svg" xmlns:svg="http://www.w3.org/2000/svg">
 <g class="layer">
  <title>Layer 1</title>
  <path d="m20,4l-16,0c-1.1,0 -2,0.9 -2,2l0,12c0,1.1 0.9,2 2,2l16,0c1.1,0 2,-0.9 2,-2l0,-12c0,-1.1 -0.9,-2 -2,-2m0,2l0,2l-16,0l0,-2l16,0zm-16,12l0,-6.9l15.97,0l0.03,6.9l-16,0z" id="svg_1" transform="matrix(1 0 0 1 0 0)" fill="currentColor"/>
  <path d="m6,14.37l1.83,0l0,1.63l-1.83,0l0,-1.63z" id="svg_2" transform="matrix(1 0 0 1 0 0)" fill="currentColor"/>
 </g>
</svg>